<?xml version="1.0" encoding="utf-8"?>
<!-- Generator: Adobe Illustrator 25.0.1, SVG Export Plug-In . SVG Version: 6.00 Build 0)  -->
<svg version="1.1" id="News_Room" xmlns="http://www.w3.org/2000/svg" xmlns:xlink="http://www.w3.org/1999/xlink" x="0px" y="0px"
	 viewBox="0 0 5120 2732" style="enable-background:new 0 0 5120 2732;" xml:space="preserve">
<style type="text/css">
	.st0{fill:#FFFFFF;}
</style>
<g>
	<path class="st0" d="M2500.5,1107.7h303.8c10.3,0,24,0.8,41.2,2.5c17.3,1.7,31.9,4,43.7,7.2c13.4,3.6,26.5,8.3,38.9,14.1
		c14.1,6.4,25.5,14,34.1,22.6c8.6,8.8,15.8,20,21.7,33.7c5.9,13.8,8.8,29.2,8.8,46.4c0,65.6-31.4,106.6-94.3,123.1
		c13.4,3.7,26.3,9.1,38.4,16.2c10.4,6.1,19.6,13.8,27.6,22.8c7.7,9.2,14.1,19.5,18.7,30.7c5.2,12,9.1,24.5,12,37.2
		c3.2,15,5.7,30.2,7.3,45.5c0.9,7,3.7,12.2,8.3,15.6c4.5,3.2,9.8,5,15.4,5c6.2,0.1,12.4,0.8,18.5,2.1c6.7,1.4,11.9,3.8,15.6,7.4
		c0,14.1-0.3,25.3-1.2,33.5s-2.7,16.3-5.7,24c-3.1,7.7-7,13.4-11.9,17c-4.9,3.6-12.2,6.8-22.1,9.7c-11,3-22.3,4.5-33.6,4.4h-48.6
		c-27.8,0-50.6-3-68.2-8.9s-30.4-14.1-38.4-24.5c-8-10.5-13.8-22.4-17.1-35.1c-3.7-14-6.2-28.2-7.6-42.5
		c-1.6-15.4-3.8-30.3-6.6-44.7c-2.7-14.4-8.4-29-17.3-43.7c-9.1-15-21.6-27.8-36.4-37.3h-21.5c0,10.7,0,20,0.1,27.7
		c0.1,7.7,0.5,16.9,0.9,27.6c0.3,9.1,1.3,18.1,2.5,27c1.2,7.4,2.8,14.8,4.6,22c1.8,7.2,4.3,12.7,7.3,16.4c2.5,3.5,6.5,5.8,10.7,6.4
		c1.3,0.1,2.7,0.3,3.9,0.7l4,0.8l3.7,0.8c1.4,0.2,2.7,0.6,3.9,1.2c0.7,0.3,1.7,0.8,3.2,1.5c1.2,0.5,2.3,1.2,3.2,2.1
		c0.7,0.7,1.5,1.6,2.4,2.8c0.9,1,1.6,2.3,2.1,3.6c0.5,1.5,0.9,3,1.2,4.5c0.3,1.8,0.5,3.8,0.5,5.7c-0.1,17-2,34-5.7,50.6
		c-3.8,17.2-9.4,28-16.5,32c-29.1-3.2-69.3-4.9-120.4-4.9c-74.4,0-120.1,1.5-137,4.5c-6.1-4.3-10.7-15.8-14-34.7
		c-3.2-17.8-4.9-35.9-4.9-54.1c-0.1-3.8,0.7-7.5,2.3-10.9c1.5-3,3.9-5.3,7-6.7c2.8-1.4,5.7-2.4,8.7-3.1c3.7-0.7,7.4-1.3,11.1-1.5
		c6.1-0.5,11.9-3.4,16.2-7.9s7.3-10.7,9.2-18.6c1.8-7.5,3.2-15.3,3.9-23c0.7-7.5,0.9-16.4,0.9-26.6v-149.6c0-8.9-0.1-16.3-0.5-22.2
		c-0.3-6.2-1-12.6-2.1-18.7c-0.8-5.5-2.3-10.9-4.7-15.8c-2.1-4-5.1-7.5-8.7-10.3c-3.9-2.9-8.6-4.7-13.4-5.3c-3.7-0.3-7.3-0.9-11-1.7
		c-3-0.8-6-1.8-8.8-3.2c-3-1.4-5.5-3.7-7-6.7c-1.6-3.4-2.4-7.2-2.3-10.9c0.1-17.6,1.7-35,4.9-52.2
		C2489.8,1123,2494.4,1111.8,2500.5,1107.7z M2724.3,1330.4c9,2.3,18.4,3.5,27.7,3.5c28.7,0,43.1-29.8,43.1-89.4
		c0.1-8.9-0.5-17.8-1.6-26.6c-1-7.5-2.9-14.9-5.5-22.1c-2.2-6.6-6.5-12.2-12-16.3c-5.4-3.8-12.2-5.7-20.2-5.7
		c-12,0-20.2,5.7-24.6,17c-4.4,11.3-6.7,27.6-6.7,48.9L2724.3,1330.4z"/>
	<path class="st0" d="M3306.1,1628.5c-62.9,0-113.4-16.6-151.6-50c-38.1-33.4-57.3-80.3-57.3-140.9c0-60.3,17.6-107.6,52.7-141.9
		c35.1-34.3,85.9-51.4,152.2-51.4c32.2,0,61.1,3.8,86.8,11.3s48,18.8,66.8,34c18.8,15,33.3,34.7,43.4,58.9
		c10.2,24.3,15.1,52.3,15.1,84.2c0,62.6-18.3,110.8-54.8,144.8S3371.9,1628.5,3306.1,1628.5z M3271.6,1438c0,43.1,2.4,74.8,7.4,94.9
		c4.9,20.1,14.3,30.2,28.2,30.2c4.7,0.1,9.5-1.5,13.2-4.5c3.8-3,6.8-7.6,9.1-14.1c2.3-6.6,4.3-13.3,5.7-20c1.7-9,2.9-18.1,3.2-27.3
		c0.7-11.2,1.2-21.4,1.3-30.5c0.2-9.1,0.3-20.7,0.3-34.7c0-10.5,0-19.2-0.1-25.9s-0.5-15.8-1.2-27.4c-0.5-9.6-1.5-19.1-3.1-28.4
		c-1.5-7.7-3.4-15.3-5.7-22.8c-2.4-7.7-5.5-13.6-9.6-17.4c-3.8-3.7-8.9-5.9-14.2-5.8c-14.3,0-23.7,10.2-28.1,30.5
		C3273.8,1355.1,3271.6,1389.6,3271.6,1438z"/>
	<path class="st0" d="M3762.3,1628.5c-62.9,0-113.4-16.6-151.6-50c-38.1-33.4-57.3-80.3-57.3-140.9c0-60.3,17.6-107.6,52.7-141.9
		c35.1-34.3,85.9-51.4,152.2-51.4c32.2,0,61.1,3.8,86.8,11.3c25.7,7.5,48,18.8,66.8,34c18.8,15,33.3,34.7,43.4,58.9
		c10.2,24.3,15.1,52.3,15.1,84.2c0,62.6-18.3,110.8-54.8,144.8S3828,1628.5,3762.3,1628.5z M3727.7,1438c0,43.1,2.4,74.8,7.3,94.9
		c4.9,20.1,14.3,30.2,28.2,30.2c4.7,0.1,9.5-1.5,13.2-4.5c3.8-3,6.8-7.6,9.1-14.1c2.3-6.6,4.3-13.3,5.7-20c1.7-9,2.9-18.1,3.2-27.3
		c0.7-11.2,1-21.4,1.3-30.5c0.2-9.1,0.3-20.7,0.3-34.7c0-10.5,0-19.2-0.1-25.9c-0.1-6.7-0.5-15.8-1.2-27.4
		c-0.5-9.6-1.5-19.1-3.1-28.4c-1.5-7.7-3.4-15.3-5.7-22.8c-2.4-7.7-5.7-13.6-9.6-17.4c-3.8-3.7-8.9-5.8-14.2-5.8
		c-14.3,0-23.7,10.2-28.1,30.5C3729.8,1355.1,3727.7,1389.6,3727.7,1438z"/>
	<path class="st0" d="M4390.7,1618.2c-5.2,0-14.7,0.9-28.2,2.8c-13.6,1.8-23.8,2.8-30.5,2.8c-13.3,0-23.7-2.5-31.2-7.7
		c-7.5-5.2-11.3-14.4-11.2-27.8c0-10.1,0.1-25.5,0.5-46.4c0.3-20.9,0.5-41.7,0.5-62.5c0-51.9-2-88.4-6-109.4s-13.2-31.5-27.6-31.5
		c-28.7,0-43.1,18.7-43.1,56.4v26.6c0,10.1,0,17.8,0.1,23.3c0.1,5.5,0.5,12.6,0.9,21c0.3,6.7,1.2,13.3,2.4,19.8
		c1.2,5.1,2.8,10.2,4.6,15c1.5,4.6,4.3,8.7,7.9,11.9c3.2,2.8,7.2,4.6,11.4,5.4c6.2-0.1,12.4,2,17.3,5.8c5,3.8,7.5,9.6,7.5,17.1
		c-0.1,17.8-2.3,35.6-6.7,52.9c-4.5,18.3-10.7,29.5-18.7,33.9c-30-6.1-62.5-9.2-97.5-9.2c-39.4,0-75.1,3.1-107.3,9.2
		c-8.1-4.3-14.3-15.6-18.7-33.9c-4.4-17.3-6.6-35.1-6.7-52.9c0-7.5,2.5-13.2,7.5-17.1c5-3.8,11.1-5.9,17.3-5.8
		c11.3-2.3,18.6-10.4,22.1-24.3c3.4-13.9,5.1-34.5,5.1-62.2v-9.2c0-28.9-3.1-48.5-9.2-58.9c-6.1-10.4-19.8-17-40.9-20
		c-5.2-1.2-8.6-3.2-9.9-6.4c-1.4-3.1-2.1-9.4-2.1-18.9c0-12,1.3-24,3.7-35.7c2.5-11.8,5.4-21,8.7-27.7c3.2-6.7,6.1-10.1,8.4-10.1
		c38.2,5.4,72.7,8.2,103.1,8.2c13.6-0.1,27.4-0.8,40.9-2.4c14.7-1.6,24.1-2.4,28.2-2.4c9.4,0,15.6,1.8,18.9,5.4
		c3.2,3.6,4.9,12,4.9,25.3l-0.7,22.1c38.7-37.4,82.4-56.2,130.8-56.2c17.9-0.2,35.5,4.6,50.7,13.9c15.1,9.2,27.2,23.1,36.1,41.6
		c20.2-20.3,39.6-34.7,58.1-43s40-12.5,64.6-12.5c31.8,0,58.1,11.1,78.9,33.4c20.8,22.3,31.3,55,31.3,98.2c0,5.5-0.3,13.9-0.9,25.1
		c-0.7,11.2-0.9,19.8-1,25.7c0,8,0,14.8,0.1,20.2c0.1,5.4,0.3,12,0.8,19.6c0.3,6.5,1,12.9,2.3,19.4c1,5.2,2.4,10.4,4,15.4
		c1.3,4.4,3.5,8.3,6.5,11.7c2.5,2.7,6,4.4,9.6,4.9c1.3,0.1,2.7,0.3,3.9,0.7l4,0.8l3.7,0.8c1.4,0.2,2.7,0.7,3.9,1.2
		c0.7,0.3,1.7,0.8,3.2,1.5c1.2,0.5,2.3,1.2,3.2,2.1c0.7,0.7,1.5,1.6,2.4,2.7c0.9,1,1.6,2.2,2.1,3.6s0.9,2.9,1.2,4.4
		c0.3,1.8,0.5,3.7,0.5,5.5c-0.1,17.8-2.3,35.4-6.7,52.6c-4.5,18.1-10.7,29.2-18.7,33.6c-26.7-6.2-53.8-9.4-81.2-9.2
		c-4.6,0-13.1,0.9-25.3,2.8c-12.2,1.8-21.5,2.8-27.6,2.8c-13.3,0-23.7-2.5-31.2-7.7c-7.5-5.2-11.3-14.4-11.2-27.8
		c0-10.1,0.1-25.5,0.5-46.4c0.3-20.9,0.5-41.7,0.5-62.5c0-13.2,0-24.1-0.1-32.8c-0.1-8.7-0.3-18-0.8-28c-0.5-10.1-1-18.3-1.8-24.6
		c-0.8-6.4-1.8-12.9-3.1-19.6c-0.9-5.4-2.5-10.7-4.7-15.8c-1.8-3.9-4.2-7.5-6.8-11c-2.4-3.2-5.7-5.7-9.5-7.2
		c-3.9-1.4-8.1-2.1-12.2-2.1c-6.2-0.1-12.2,2.1-17,6.1c-5,4.4-8.7,10.1-10.7,16.3c-2.3,6.4-4,12.8-5.1,19.5
		c-0.9,6.2-1.5,12.6-1.5,19.1c0,77.2,4.6,116.7,13.7,118.5c1.3,0.1,2.7,0.3,3.9,0.7l4,0.8l3.7,0.8c1.4,0.2,2.7,0.7,3.9,1.2
		c0.7,0.3,1.7,0.8,3.2,1.5c1.2,0.5,2.3,1.2,3.2,2.1c0.7,0.7,1.5,1.6,2.4,2.7c0.9,1,1.6,2.2,2.1,3.6c0.5,1.4,0.9,2.9,1.2,4.4
		c0.3,1.8,0.5,3.7,0.5,5.5c-0.1,17.7-2,35.4-5.7,52.6c-3.8,18.1-9.4,29.2-16.5,33.6C4439,1621.2,4414.9,1618.2,4390.7,1618.2z"/>
</g>
<g>
	<path class="st0" d="M985.3,1132.3c-3.6-15.4-8.8-25-15.5-28.8c-26.8,2.3-54.3,3.5-82.6,3.5c-38.9,0-74.4-1.2-106.4-3.5
		c-6.7,8.2-11.9,29-15.5,62.4c-3.4,31.2-5.1,61.5-5.3,91.2c-20.3-25.3-45.8-57.1-76.4-95.3c-5.2-6.4-10.4-13.3-15.7-20.6
		c-5.2-7.3-9.2-12.8-12-16.8c-2.9-3.8-5.8-7.5-8.8-11.1c-2.3-2.9-5.2-5.4-8.3-7.5c-2.4-1.5-5.2-2.2-8-2.2c-3.4,0.3-6.8,0.9-10.2,1.7
		c-5.7,1.2-14.3,1.7-26.1,1.7h-41.7c-51.8,0-92.1-1.2-121.1-3.5c-6.9,5.4-12.5,15.3-16.8,29.2c-4.3,14.1-6.8,25.7-7.5,34.9
		c-0.8,9.2-1.2,17.6-1.2,24.8c0,6.1,2.3,10.6,7,13.5c5.2,3.1,11,5.2,17,6.4c6.8,1.4,13.5,3.2,20.1,5.3c6.7,2.2,12.5,6.6,17.1,13.4
		s7,15.8,7,27.3v189.5c0,12.6-0.3,23.1-1.2,31.5c-0.8,9-2.4,17.8-4.6,26.6c-2.3,9.2-6.1,16.4-11.4,21.4c-5.3,5-12.1,7.9-20.5,8.6
		c-6.9,0.7-12.4,1.4-16.3,2.1c-4.2,0.8-8.1,2.5-11.4,5.1c-3.6,2.5-5.7,6.8-5.5,11.3c0,14.2,1.8,28.3,5.4,41.9
		c3.6,14.3,8.8,23.1,15.5,26.6c29.6-3,66.1-4.5,109.7-4.4c30.9,0,58.4,1.5,82.3,4.4c6.7-3.5,11.9-12.4,15.6-26.7
		c3.6-13.6,5.4-27.7,5.5-41.8c0.1-3.2-0.8-6.5-2.8-9.1c-2.2-2.7-5.1-4.5-8.3-5.4c-3.4-1.2-6.8-2.1-10.3-2.5
		c-3.1-0.5-7.3-0.9-12.2-1.4c-24.6-2.1-36.9-28.7-36.9-79.5v-113c0-7,1.3-10.6,3.9-10.6c3.1,0,10.4,7.3,21.8,22
		c95.1,122.2,152.3,194.3,171.6,216.5c18.3,19.6,34.9,34,49.9,43c15,9,29.8,13.5,44.4,13.5c19.5,0,42.3-3.1,68.2-9.2
		c-4.2-29.1-6.2-133.5-6.2-312.7v-32.1c0-8.6,0.3-17.1,1.2-25.5c0.9-8,2.4-15.9,4.6-23.7c2.3-8.3,6-14.9,11.1-19.8
		c5.3-5,12.1-7.9,19.4-8.3c5-0.5,9-0.9,12.2-1.4c3.5-0.6,6.9-1.5,10.3-2.7c3.2-1,6.1-3,8.3-5.7c2-2.8,2.9-6,2.8-9.4
		C990.6,1162.1,988.9,1146.9,985.3,1132.3z M827.4,1617.4l0.6,0.9C827.7,1618.4,827.5,1618.1,827.4,1617.4z"/>
	<path class="st0" d="M1359.4,1584.8c-28.5,28.5-74.6,42.9-138.3,42.9c-37.2,0-71.1-7.6-101.7-22.8s-55.1-37.7-73.6-67.5
		c-18.5-29.8-27.7-64.2-27.7-103.3c0-59.9,18.4-106.5,55.1-140.2c36.7-33.6,85.3-50.4,145.6-50.4c47.4,0,86.8,13.4,118.1,40.1
		c31.3,26.7,48.8,59.2,52.2,97.3c-5,36.3-45.5,54.5-121.7,54.5h-81.9c2.2,27,10.5,47.1,25,60.1c14.4,12.9,32.1,19.4,53,19.4
		c20.2-0.1,40.2-3.5,59.4-9.9c18.8-6,36.7-14.9,52.9-26.3c7.4,3.5,11.1,10.2,11.1,20.2c0,15.7-3,32.5-9,50.1
		C1371.9,1566.7,1365.8,1578.7,1359.4,1584.8z M1179.7,1378.9h59.4c8.7,0,14.7-1.8,17.8-5.5c3.1-3.7,4.7-10.1,4.7-18.8
		c0-16.5-3.2-29.2-9.8-38c-6.6-8.8-15.9-13.3-28.4-13.3c-17.8,0-29.6,5.9-35.2,17.7S1179.7,1352,1179.7,1378.9z"/>
	<path class="st0" d="M1527.5,1588.3c-4.4-12.4-11.6-32.9-21.5-61.7c-10.1-28.8-19.4-55.5-28.1-79.8s-16.6-45.8-23.8-63.9
		c-4.7-12.7-9.9-22.5-15.4-29.3c-5.4-6.8-10.1-10.9-13.9-12.1c-3.6-1.2-7.2-2.2-10.7-2.9c-3.1-0.5-5.9-2.4-7.5-5.1
		c-1.6-2.8-2.4-7.9-2.4-15.4c0-26.7,0.8-44.6,2.3-53.8c1.5-9.2,4.7-16.1,9.5-20.3c43.9,6.4,78.9,9.6,105,9.6
		c42.6,0,78-3.2,106.1-9.6c5,1.8,8.6,8.2,10.6,19.3c2.1,11.1,3.1,30.2,3.1,57.2c0,5.2-1.3,9-3.7,11.4c-2.1,2.2-5,3.6-8,3.9
		s-5.8,1.5-8,3.6c-2.5,2.2-3.8,5.7-3.7,10.4c0,0.9,2.3,8.7,7,23.1s9.5,29.3,14.3,44.6c4.9,15.3,7.5,23.5,8,24.6
		c2.2,7.5,4,11.3,5.5,11.3c0.7,0,1.4-0.9,2.3-2.7s1.6-3.6,2.3-5.4l0.9-3l33.3-93.8c-2.2-3.4-5.4-5.9-9.2-7.3c-3.6-1.2-6-2.9-7.3-5.3
		c-1.3-2.4-2-8-2-16.8c0-26.9,0.8-44.9,2.3-54.2c1.5-9.2,4.7-15.9,9.5-20.3c34.1,6.1,61.6,9.1,82.3,9.1c43.9,0,80.3-3.2,109.3-9.6
		c5,1.8,8.6,8.2,10.6,19.3s3.1,30.2,3.1,57.2c0,5.2-1.3,9-3.7,11.4c-2.1,2.2-5,3.6-8,3.9s-5.8,1.5-8,3.6c-2.5,2.2-3.8,5.7-3.7,10.4
		c0,0.9,2.3,8.7,7,23.1s9.5,29.3,14.3,44.6c4.9,15.3,7.5,23.5,8,24.6c2.2,7.5,4,11.3,5.5,11.3c0.9,0,2-1.8,3.2-5.7
		c1.3-3.7,2.1-5.7,2.3-5.7l5.2-14c3.5-9.6,7.3-19.9,11.4-30.9c4.2-11.1,7.9-21.5,11.2-31.4c3.4-9.9,5.1-15.3,5.1-16.2
		c0.2-3.4-1.2-6.7-3.6-9c-2.2-2.1-4.9-3.6-7.6-4.4c-3.1-1-5.8-3-7.6-5.7c-2.4-3-3.6-7-3.6-12.2c0-46.2,6-70.9,17.9-74.1
		c25.2,6.4,46.4,9.6,63.7,9.6c17.6,0,35-3.1,51.5-9.2c0.2-0.2,0.9-0.3,2-0.3c2.4,0,4.3,1.8,5.7,5.7c1.4,3.8,2.4,9.7,2.9,17.9
		c0.5,8.2,0.9,15.3,0.9,21c0.1,5.8,0.1,14.2,0.1,25.2c0,9.1-1.3,15.7-3.9,19.6c-2.2,3.7-6,6.2-10.3,6.8s-8.7,1-13.2,1.4
		c-4.5,0.3-9.4,2.3-14.3,6c-5,3.7-9,9.6-12,17.8c-9.1,25.5-41.6,111.3-97.3,257.2c0,3.7-27.3,5.4-81.9,5.4c-13.3,0-23.3-2.3-30-7
		c-6.7-4.6-13.2-15.5-19.3-32.4c-5.2-14.1-13.6-37.8-25.2-71.1c-11.6-33.3-20.1-57.5-25.8-73.1l-63.3,178.1c0,3.7-29.5,5.4-88.4,5.4
		c-13.3,0-23.2-2.3-29.8-7C1540.7,1616.6,1533.9,1605.3,1527.5,1588.3z"/>
	<path class="st0" d="M2425.5,1507.1c0,20.8-4.3,39.1-12.9,54.8c-8.6,15.7-21.1,28.8-36.5,37.9c-15.7,9.5-34.1,16.5-54.8,21
		c-20.8,4.6-44,6.8-69.7,6.8c-53.3,0-93.2-7.2-119.9-21.6c-26.7-14.4-40-31.4-40-51.1c0-14.7,7.2-27.3,21.4-38s32.6-16.1,55-16.1
		l25.4,49.3c12.2,3.5,24.8,5.2,37.6,5.2c10.2,0,19.1-2.2,26.5-6.5c7.4-4.4,11.1-9.6,11.1-15.7c0-6.1-2.8-12.1-8.6-17.8
		c-6.6-6.4-14.1-11.6-22.3-15.4c-9.2-4.6-18.5-8.7-27.7-12.1c-9.2-3.5-18.8-7-28.7-10.6c-7.2-2.4-14.2-5.2-21-8.4
		c-26.6-13.3-46.9-29-61-47.3c-14.1-18.3-21.3-40.3-21.1-66.1c-0.2-17.7,5.3-35,15.7-49.3c10.4-14.7,24.4-26.3,41.8-35.1
		c18.3-9.1,37.7-15.9,57.5-20.2c21.4-4.7,43.2-7,65.1-7c45.4,0,81.5,7.9,108.2,23.7c26.7,15.8,40,33.2,40,52.1
		c0,12.4-6.1,22.5-18.5,30.5c-12.4,8-29.8,12-52.3,12l-21.4-42.4c-2.4-2.8-8.8-5.3-19.1-7.7c-10.3-2.4-20.7-3.6-31.2-3.6
		c-23.7,0-35.6,6.7-35.6,20.2c0,7,5.1,14.4,15.1,22.3c10.2,7.7,23.5,14.1,40,18.8c11.1,3.2,20.3,6,27.8,8.4
		c7.5,2.4,16.6,5.8,27.4,10.3c9.4,3.8,18.5,8.3,27,13.5c8.2,5.2,15.9,11.1,23.2,17.4c7.6,6.5,14.2,14.2,19.4,22.8
		C2419.7,1461.9,2425.6,1484.3,2425.5,1507.1L2425.5,1507.1z"/>
</g>
</svg>
